<?xml version="1.0" encoding="UTF-8" standalone="no"?>
<svg
   xmlns:dc="http://purl.org/dc/elements/1.1/"
   xmlns:cc="http://creativecommons.org/ns#"
   xmlns:rdf="http://www.w3.org/1999/02/22-rdf-syntax-ns#"
   xmlns:svg="http://www.w3.org/2000/svg"
   xmlns="http://www.w3.org/2000/svg"
   xmlns:sodipodi="http://sodipodi.sourceforge.net/DTD/sodipodi-0.dtd"
   xmlns:inkscape="http://www.inkscape.org/namespaces/inkscape"
   inkscape:version="1.0 (4035a4f, 2020-05-01)"
   sodipodi:docname="iiif-d2-black.svg"
   version="1.1"
   id="svg2"
   xml:space="preserve"
   width="600"
   height="600"
   viewBox="0 0 422.87999 519.21569"
   inkscape:export-filename="/Users/seige/detektiiifNEU/detektiiif2/src/assets/img/icon-128.png"
   inkscape:export-xdpi="20.48"
   inkscape:export-ydpi="20.48"><sodipodi:namedview
     inkscape:current-layer="svg2"
     inkscape:window-maximized="0"
     inkscape:window-y="23"
     inkscape:window-x="0"
     inkscape:cy="300"
     inkscape:cx="300"
     inkscape:zoom="1.0466667"
     fit-margin-bottom="0"
     fit-margin-right="0"
     fit-margin-left="0"
     fit-margin-top="0"
     showgrid="false"
     id="namedview22"
     inkscape:window-height="836"
     inkscape:window-width="1215"
     inkscape:pageshadow="2"
     inkscape:pageopacity="0"
     guidetolerance="10"
     gridtolerance="10"
     objecttolerance="10"
     borderopacity="1"
     bordercolor="#666666"
     pagecolor="#ffffff"
     inkscape:document-rotation="0" /><metadata
     id="metadata8"><rdf:RDF><cc:Work
         rdf:about=""><dc:format>image/svg+xml</dc:format><dc:type
           rdf:resource="http://purl.org/dc/dcmitype/StillImage" /><dc:title></dc:title></cc:Work></rdf:RDF></metadata><defs
     id="defs6" /><rect
     style="fill:#000000;fill-opacity:1;stroke-width:1.90718;stroke-linecap:round"
     id="rect952"
     width="519.2157"
     height="519.2157"
     x="-48.16785"
     y="0"
     inkscape:export-xdpi="20.48"
     inkscape:export-ydpi="20.48" /><g
     id="g10"
     transform="matrix(1.3333333,0,0,-1.3333333,-35.242602,480.27451)"><g
       id="g12"
       transform="scale(0.1)"><path
         d="M 65.2422,2178.75 775.242,1915 773.992,15 65.2422,276.25 v 1902.5"
         style="fill:#ff00ff;fill-opacity:1;fill-rule:nonzero;stroke:none"
         id="path14" /><path
         d="m 804.145,2640.09 c 81.441,-240.91 -26.473,-436.2 -241.04,-436.2 -214.558,0 -454.511,195.29 -535.9527,436.2 -81.4335,240.89 26.4805,436.18 241.0387,436.18 214.567,0 454.512,-195.29 535.954,-436.18"
         style="fill:#ff00ff;fill-opacity:1;fill-rule:nonzero;stroke:none"
         id="path16" /><path
         d="M 1678.58,2178.75 968.578,1915 969.828,15 1678.58,276.25 v 1902.5"
         style="fill:#00ff00;fill-opacity:1;fill-rule:nonzero;stroke:none"
         id="path18" /><path
         d="m 935.082,2640.09 c -81.437,-240.91 26.477,-436.2 241.038,-436.2 214.56,0 454.51,195.29 535.96,436.2 81.43,240.89 -26.48,436.18 -241.04,436.18 -214.57,0 -454.52,-195.29 -535.958,-436.18"
         style="fill:#00ff00;fill-opacity:1;fill-rule:nonzero;stroke:none"
         id="path20" /><path
         d="m 1860.24,2178.75 710,-263.75 -1.25,-1900 -708.75,261.25 v 1902.5"
         style="fill:#ff00ff;fill-opacity:1;fill-rule:nonzero;stroke:none"
         id="path22" /><path
         d="m 2603.74,2640.09 c 81.45,-240.91 -26.47,-436.2 -241.03,-436.2 -214.58,0 -454.52,195.29 -535.96,436.2 -81.44,240.89 26.48,436.18 241.03,436.18 214.57,0 454.51,-195.29 535.96,-436.18"
         style="fill:#ff00ff;fill-opacity:1;fill-rule:nonzero;stroke:none"
         id="path24" /><path
         d="m 3700.24,3310 v -652.5 c 0,0 -230,90 -257.5,-142.5 -2.5,-247.5 0,-336.25 0,-336.25 l 257.5,83.75 V 1690 l -258.61,-92.5 V 262.5 L 2735.24,0 v 2360 c 0,0 -15,850 965,950"
         style="fill:#00ffff;fill-opacity:1;fill-rule:nonzero;stroke:none"
         id="path26" /></g></g></svg>
