<?xml version="1.0" encoding="UTF-8" standalone="no"?>
<svg
   xmlns:dc="http://purl.org/dc/elements/1.1/"
   xmlns:cc="http://creativecommons.org/ns#"
   xmlns:rdf="http://www.w3.org/1999/02/22-rdf-syntax-ns#"
   xmlns:svg="http://www.w3.org/2000/svg"
   xmlns="http://www.w3.org/2000/svg"
   xmlns:sodipodi="http://sodipodi.sourceforge.net/DTD/sodipodi-0.dtd"
   xmlns:inkscape="http://www.inkscape.org/namespaces/inkscape"
   inkscape:version="1.0 (4035a4f, 2020-05-01)"
   sodipodi:docname="icon2.svg"
   id="svg8"
   version="1.1"
   viewBox="0 0 24 24"
   height="24mm"
   width="24mm">
  <defs
     id="defs2">
    <inkscape:path-effect
       live_update="false"
       perimetral="false"
       vertical_mirror="false"
       horizontal_mirror="false"
       lpeversion="1"
       is_visible="true"
       id="path-effect979"
       effect="lattice2"
       gridpoint0="31.924748,75.460086"
       gridpoint1="49.468841,75.460086"
       gridpoint2="31.924748,82.98415"
       gridpoint3="49.468841,82.98415"
       gridpoint4="36.204728,74.929869"
       gridpoint5="45.082818,74.717783"
       gridpoint6="36.310771,83.408323"
       gridpoint7="45.082818,83.461345"
       gridpoint8x9="40.643772,74.823826"
       gridpoint10x11="40.696794,83.514367"
       gridpoint12="31.924748,77.341102"
       gridpoint13="49.468841,77.341102"
       gridpoint14="31.924748,81.103134"
       gridpoint15="49.468841,81.103134"
       gridpoint16="36.310771,77.341102"
       gridpoint17="45.082818,77.341102"
       gridpoint18="36.310771,81.103134"
       gridpoint19="45.082818,81.103134"
       gridpoint20x21="40.696794,77.341102"
       gridpoint22x23="40.696794,81.103134"
       gridpoint24x26="31.924748,79.222118"
       gridpoint25x27="49.468841,79.222118"
       gridpoint28x30="36.310771,79.222118"
       gridpoint29x31="45.082818,79.222118"
       gridpoint32x33x34x35="40.696794,79.222118" />
    <inkscape:path-effect
       live_update="false"
       perimetral="false"
       vertical_mirror="false"
       horizontal_mirror="false"
       lpeversion="1"
       is_visible="true"
       id="path-effect977"
       gridpoint32x33x34x35="40.696794,79.222118"
       gridpoint29x31="45.082818,79.222118"
       gridpoint28x30="36.310771,79.222118"
       gridpoint25x27="49.468841,79.222118"
       gridpoint24x26="31.924748,79.222118"
       gridpoint22x23="40.696794,81.103134"
       gridpoint20x21="40.696794,77.341102"
       gridpoint19="45.082818,81.103134"
       gridpoint18="36.310771,81.103134"
       gridpoint17="45.082818,77.341102"
       gridpoint16="36.310771,77.341102"
       gridpoint15="49.468841,81.103134"
       gridpoint14="31.924748,81.103134"
       gridpoint13="49.468841,77.341102"
       gridpoint12="31.924748,77.341102"
       gridpoint10x11="40.696794,82.98415"
       gridpoint8x9="40.696794,75.460086"
       gridpoint7="45.082818,82.98415"
       gridpoint6="36.310771,82.98415"
       gridpoint5="45.082818,75.460086"
       gridpoint4="36.310771,75.460086"
       gridpoint3="49.468841,82.98415"
       gridpoint2="31.924748,82.98415"
       gridpoint1="49.468841,75.460086"
       gridpoint0="31.924748,75.460086"
       effect="lattice2" />
    <inkscape:path-effect
       live_update="false"
       perimetral="false"
       vertical_mirror="false"
       horizontal_mirror="false"
       lpeversion="1"
       is_visible="true"
       id="path-effect975"
       gridpoint32x33x34x35="40.696794,79.222118"
       gridpoint29x31="45.082818,79.222118"
       gridpoint28x30="36.310771,79.222118"
       gridpoint25x27="49.468841,79.222118"
       gridpoint24x26="31.924748,79.222118"
       gridpoint22x23="40.696794,81.103134"
       gridpoint20x21="40.696794,77.341102"
       gridpoint19="45.082818,81.103134"
       gridpoint18="36.310771,81.103134"
       gridpoint17="45.082818,77.341102"
       gridpoint16="36.310771,77.341102"
       gridpoint15="49.468841,81.103134"
       gridpoint14="31.924748,81.103134"
       gridpoint13="49.468841,77.341102"
       gridpoint12="31.924748,77.341102"
       gridpoint10x11="40.696794,82.98415"
       gridpoint8x9="40.696794,75.460086"
       gridpoint7="45.082818,82.98415"
       gridpoint6="36.310771,82.98415"
       gridpoint5="45.082818,75.460086"
       gridpoint4="36.310771,75.460086"
       gridpoint3="49.468841,82.98415"
       gridpoint2="31.924748,82.98415"
       gridpoint1="49.468841,75.460086"
       gridpoint0="31.924748,75.460086"
       effect="lattice2" />
    <inkscape:path-effect
       live_update="false"
       perimetral="false"
       vertical_mirror="false"
       horizontal_mirror="false"
       lpeversion="1"
       is_visible="true"
       id="path-effect973"
       gridpoint32x33x34x35="40.696794,79.222118"
       gridpoint29x31="45.082818,79.222118"
       gridpoint28x30="36.310771,79.222118"
       gridpoint25x27="49.468841,79.222118"
       gridpoint24x26="31.924748,79.222118"
       gridpoint22x23="40.696794,81.103134"
       gridpoint20x21="40.696794,77.341102"
       gridpoint19="45.082818,81.103134"
       gridpoint18="36.310771,81.103134"
       gridpoint17="45.082818,77.341102"
       gridpoint16="36.310771,77.341102"
       gridpoint15="49.468841,81.103134"
       gridpoint14="31.924748,81.103134"
       gridpoint13="49.468841,77.341102"
       gridpoint12="31.924748,77.341102"
       gridpoint10x11="40.696794,82.98415"
       gridpoint8x9="40.696794,75.460086"
       gridpoint7="45.082818,82.98415"
       gridpoint6="36.310771,82.98415"
       gridpoint5="45.082818,75.460086"
       gridpoint4="36.310771,75.460086"
       gridpoint3="49.468841,82.98415"
       gridpoint2="31.924748,82.98415"
       gridpoint1="49.468841,75.460086"
       gridpoint0="31.924748,75.460086"
       effect="lattice2" />
    <inkscape:path-effect
       bendpath4="m 54.742464,55.178103 v 7.524065"
       bendpath3="M 54.742464,62.702168 H 73.874057"
       bendpath2="m 73.874057,55.178103 v 7.524065"
       bendpath1="M 54.742464,55.178103 H 73.874057"
       xx="true"
       yy="true"
       lpeversion="1"
       is_visible="true"
       id="path-effect944"
       effect="envelope" />
    <rect
       id="rect835"
       height="55.184525"
       width="139.09525"
       y="73.327377"
       x="31.75" />
    <rect
       x="31.75"
       y="73.327377"
       width="139.09525"
       height="55.184525"
       id="rect952" />
    <rect
       x="31.75"
       y="73.327377"
       width="139.09525"
       height="55.184525"
       id="rect960" />
  </defs>
  <sodipodi:namedview
     fit-margin-bottom="0"
     fit-margin-right="0"
     fit-margin-left="0"
     fit-margin-top="0"
     inkscape:window-maximized="0"
     inkscape:window-y="23"
     inkscape:window-x="0"
     inkscape:window-height="855"
     inkscape:window-width="1392"
     inkscape:guide-bbox="true"
     showguides="true"
     showgrid="false"
     inkscape:document-rotation="0"
     inkscape:current-layer="layer1"
     inkscape:document-units="mm"
     inkscape:cy="45.639816"
     inkscape:cx="-8.5149864"
     inkscape:zoom="3.3887929"
     inkscape:pageshadow="2"
     inkscape:pageopacity="0.0"
     borderopacity="1.0"
     bordercolor="#666666"
     pagecolor="#ffffff"
     id="base" />
  <metadata
     id="metadata5">
    <rdf:RDF>
      <cc:Work
         rdf:about="">
        <dc:format>image/svg+xml</dc:format>
        <dc:type
           rdf:resource="http://purl.org/dc/dcmitype/StillImage" />
        <dc:title></dc:title>
      </cc:Work>
    </rdf:RDF>
  </metadata>
  <g
     transform="translate(-51.0737,-47.073887)"
     id="layer1"
     inkscape:groupmode="layer"
     inkscape:label="Layer 1">
    <rect
       y="47.073887"
       x="51.0737"
       height="24"
       width="24"
       id="rect1068"
       style="fill:#000000;fill-opacity:1;stroke:none;stroke-width:0.689252;stroke-linecap:butt;stroke-linejoin:round;stroke-miterlimit:4;stroke-dasharray:none;stroke-opacity:1;paint-order:normal" />
    <circle
       r="10.706857"
       cy="59.073887"
       cx="63.0737"
       id="path859"
       style="fill:none;fill-opacity:1;stroke:#ffffff;stroke-width:0.839;stroke-linecap:butt;stroke-linejoin:round;stroke-miterlimit:4;stroke-dasharray:none;stroke-opacity:1;paint-order:normal" />
    <g
       style="font-style:normal;font-weight:normal;font-size:10.5833px;line-height:1.25;font-family:sans-serif;white-space:pre;shape-inside:url(#rect960);fill:#ffffff;fill-opacity:1;stroke:none;stroke-width:0.5;stroke-miterlimit:4;stroke-dasharray:none"
       id="text958"
       transform="rotate(-30,14.889437,25.148043)"
       aria-label="IIIF">
      <path
         id="path962"
         style="font-style:normal;font-variant:normal;font-weight:900;font-stretch:normal;font-family:'Roboto Slab';-inkscape-font-specification:'Roboto Slab Heavy';fill:#ff00ff;fill-opacity:1;stroke-width:0.5;stroke-miterlimit:4;stroke-dasharray:none"
         d="m 31.924748,82.98415 c 0,-0.353121 0,-0.706242 0,-1.059363 0.260104,-0.05512 0.520208,-0.110242 0.780312,-0.165364 0,-1.689814 0,-3.379628 0,-5.069442 -0.260104,-0.05512 -0.520208,-0.110242 -0.780312,-0.165364 0,-0.354843 0,-0.709687 0,-1.064531 0,0 3.369293,0 3.369293,0 0,0.354844 0,0.709688 0,1.064531 -0.260104,0.05512 -0.520208,0.110243 -0.780312,0.165364 0,1.689814 0,3.379628 0,5.069442 0.260104,0.05512 0.520208,0.110243 0.780312,0.165364 0,0.353121 0,0.706242 0,1.059363 -1.123097,0 -2.246195,0 -3.369293,0 z" />
      <path
         id="path964"
         style="font-style:normal;font-variant:normal;font-weight:900;font-stretch:normal;font-family:'Roboto Slab';-inkscape-font-specification:'Roboto Slab Heavy';fill:#00ffff;fill-opacity:1;stroke-width:0.5;stroke-miterlimit:4;stroke-dasharray:none"
         d="m 35.707451,82.98415 c 0,-0.353121 0,-0.706242 0,-1.059363 0.260104,-0.05512 0.520208,-0.110242 0.780311,-0.165364 0,-1.689814 0,-3.379628 0,-5.069442 -0.260103,-0.05512 -0.520207,-0.110242 -0.780311,-0.165364 0,-0.354843 0,-0.709687 0,-1.064531 1.123098,0 2.246195,0 3.369292,0 0,0.354844 0,0.709688 0,1.064531 -0.260103,0.05512 -0.520207,0.110243 -0.780311,0.165364 0,1.689814 0,3.379628 0,5.069442 0.260104,0.05512 0.520208,0.110243 0.780311,0.165364 0,0.353121 0,0.706242 0,1.059363 -1.123097,0 -2.246194,0 -3.369292,0 z" />
      <path
         id="path966"
         style="font-style:normal;font-variant:normal;font-weight:900;font-stretch:normal;font-family:'Roboto Slab';-inkscape-font-specification:'Roboto Slab Heavy';fill:#ffff00;fill-opacity:1;stroke-width:0.5;stroke-miterlimit:4;stroke-dasharray:none"
         d="m 39.490153,82.98415 c 0,-0.353121 0,-0.706242 0,-1.059363 0.260104,-0.05512 0.520208,-0.110242 0.780312,-0.165364 0,-1.689814 0,-3.379628 0,-5.069442 -0.260104,-0.05512 -0.520208,-0.110242 -0.780312,-0.165364 0,-0.354843 0,-0.709687 0,-1.064531 1.123098,0 2.246196,0 3.369293,0 0,0.354844 0,0.709688 0,1.064531 -0.260104,0.05512 -0.520208,0.110243 -0.780312,0.165364 0,1.689814 0,3.379628 0,5.069442 0.260104,0.05512 0.520208,0.110243 0.780312,0.165364 0,0.353121 0,0.706242 0,1.059363 -1.123097,0 -2.246195,0 -3.369293,0 z" />
      <path
         id="path968"
         style="font-style:normal;font-variant:normal;font-weight:900;font-stretch:normal;font-family:'Roboto Slab';-inkscape-font-specification:'Roboto Slab Heavy';fill:#808080;fill-opacity:1;stroke-width:0.5;stroke-miterlimit:4;stroke-dasharray:none"
         d="m 43.272856,82.98415 c 0,-0.353121 0,-0.706242 0,-1.059363 0.260104,-0.05512 0.520208,-0.110242 0.780312,-0.165364 0,-1.689814 0,-3.379628 0,-5.069442 -0.260104,-0.05512 -0.520208,-0.110242 -0.780312,-0.165364 0,-0.354843 0,-0.709687 0,-1.064531 2.065329,0 4.130657,0 6.195985,0 0,0.738971 0,1.477942 0,2.216912 -0.456473,0 -0.912947,0 -1.369421,0 -0.01206,-0.273884 -0.02411,-0.547768 -0.03617,-0.821653 -0.73208,0 -1.46416,0 -2.196241,0 0,0.580497 0,1.160994 0,1.74149 0.852659,0 1.705317,0 2.557975,0 0,0.461642 0,0.923283 0,1.384924 -0.852658,0 -1.705316,0 -2.557975,0 0,0.592555 0,1.18511 0,1.777664 0.260104,0.05512 0.520208,0.110243 0.780312,0.165364 0,0.353121 0,0.706242 0,1.059363 -1.124821,0 -2.249643,0 -3.374465,0 z" />
    </g>
  </g>
</svg>
