<?xml version="1.0" encoding="UTF-8" standalone="no"?>
<svg
   xmlns:dc="http://purl.org/dc/elements/1.1/"
   xmlns:cc="http://creativecommons.org/ns#"
   xmlns:rdf="http://www.w3.org/1999/02/22-rdf-syntax-ns#"
   xmlns:svg="http://www.w3.org/2000/svg"
   xmlns="http://www.w3.org/2000/svg"
   xmlns:sodipodi="http://sodipodi.sourceforge.net/DTD/sodipodi-0.dtd"
   xmlns:inkscape="http://www.inkscape.org/namespaces/inkscape"
   width="54.269733mm"
   height="21.413713mm"
   viewBox="0 0 54.269733 21.413713"
   version="1.1"
   id="svg8"
   sodipodi:docname="logo3.svg"
   inkscape:version="1.0 (4035a4f, 2020-05-01)">
  <defs
     id="defs2">
    <inkscape:path-effect
       gridpoint32x33x34x35="40.696794,79.222118"
       gridpoint29x31="45.082818,79.222118"
       gridpoint28x30="36.310771,79.222118"
       gridpoint25x27="49.468841,79.222118"
       gridpoint24x26="31.924748,79.222118"
       gridpoint22x23="40.696794,81.103134"
       gridpoint20x21="40.696794,77.341102"
       gridpoint19="45.082818,81.103134"
       gridpoint18="36.310771,81.103134"
       gridpoint17="45.082818,77.341102"
       gridpoint16="36.310771,77.341102"
       gridpoint15="49.468841,81.103134"
       gridpoint14="31.924748,81.103134"
       gridpoint13="49.468841,77.341102"
       gridpoint12="31.924748,77.341102"
       gridpoint10x11="40.696794,83.514367"
       gridpoint8x9="40.643772,74.823826"
       gridpoint7="45.082818,83.461345"
       gridpoint6="36.310771,83.408323"
       gridpoint5="45.082818,74.717783"
       gridpoint4="36.204728,74.929869"
       gridpoint3="49.468841,82.98415"
       gridpoint2="31.924748,82.98415"
       gridpoint1="49.468841,75.460086"
       gridpoint0="31.924748,75.460086"
       effect="lattice2"
       id="path-effect979"
       is_visible="true"
       lpeversion="1"
       horizontal_mirror="false"
       vertical_mirror="false"
       perimetral="false"
       live_update="false" />
    <inkscape:path-effect
       effect="lattice2"
       gridpoint0="31.924748,75.460086"
       gridpoint1="49.468841,75.460086"
       gridpoint2="31.924748,82.98415"
       gridpoint3="49.468841,82.98415"
       gridpoint4="36.310771,75.460086"
       gridpoint5="45.082818,75.460086"
       gridpoint6="36.310771,82.98415"
       gridpoint7="45.082818,82.98415"
       gridpoint8x9="40.696794,75.460086"
       gridpoint10x11="40.696794,82.98415"
       gridpoint12="31.924748,77.341102"
       gridpoint13="49.468841,77.341102"
       gridpoint14="31.924748,81.103134"
       gridpoint15="49.468841,81.103134"
       gridpoint16="36.310771,77.341102"
       gridpoint17="45.082818,77.341102"
       gridpoint18="36.310771,81.103134"
       gridpoint19="45.082818,81.103134"
       gridpoint20x21="40.696794,77.341102"
       gridpoint22x23="40.696794,81.103134"
       gridpoint24x26="31.924748,79.222118"
       gridpoint25x27="49.468841,79.222118"
       gridpoint28x30="36.310771,79.222118"
       gridpoint29x31="45.082818,79.222118"
       gridpoint32x33x34x35="40.696794,79.222118"
       id="path-effect977"
       is_visible="true"
       lpeversion="1"
       horizontal_mirror="false"
       vertical_mirror="false"
       perimetral="false"
       live_update="false" />
    <inkscape:path-effect
       effect="lattice2"
       gridpoint0="31.924748,75.460086"
       gridpoint1="49.468841,75.460086"
       gridpoint2="31.924748,82.98415"
       gridpoint3="49.468841,82.98415"
       gridpoint4="36.310771,75.460086"
       gridpoint5="45.082818,75.460086"
       gridpoint6="36.310771,82.98415"
       gridpoint7="45.082818,82.98415"
       gridpoint8x9="40.696794,75.460086"
       gridpoint10x11="40.696794,82.98415"
       gridpoint12="31.924748,77.341102"
       gridpoint13="49.468841,77.341102"
       gridpoint14="31.924748,81.103134"
       gridpoint15="49.468841,81.103134"
       gridpoint16="36.310771,77.341102"
       gridpoint17="45.082818,77.341102"
       gridpoint18="36.310771,81.103134"
       gridpoint19="45.082818,81.103134"
       gridpoint20x21="40.696794,77.341102"
       gridpoint22x23="40.696794,81.103134"
       gridpoint24x26="31.924748,79.222118"
       gridpoint25x27="49.468841,79.222118"
       gridpoint28x30="36.310771,79.222118"
       gridpoint29x31="45.082818,79.222118"
       gridpoint32x33x34x35="40.696794,79.222118"
       id="path-effect975"
       is_visible="true"
       lpeversion="1"
       horizontal_mirror="false"
       vertical_mirror="false"
       perimetral="false"
       live_update="false" />
    <inkscape:path-effect
       effect="lattice2"
       gridpoint0="31.924748,75.460086"
       gridpoint1="49.468841,75.460086"
       gridpoint2="31.924748,82.98415"
       gridpoint3="49.468841,82.98415"
       gridpoint4="36.310771,75.460086"
       gridpoint5="45.082818,75.460086"
       gridpoint6="36.310771,82.98415"
       gridpoint7="45.082818,82.98415"
       gridpoint8x9="40.696794,75.460086"
       gridpoint10x11="40.696794,82.98415"
       gridpoint12="31.924748,77.341102"
       gridpoint13="49.468841,77.341102"
       gridpoint14="31.924748,81.103134"
       gridpoint15="49.468841,81.103134"
       gridpoint16="36.310771,77.341102"
       gridpoint17="45.082818,77.341102"
       gridpoint18="36.310771,81.103134"
       gridpoint19="45.082818,81.103134"
       gridpoint20x21="40.696794,77.341102"
       gridpoint22x23="40.696794,81.103134"
       gridpoint24x26="31.924748,79.222118"
       gridpoint25x27="49.468841,79.222118"
       gridpoint28x30="36.310771,79.222118"
       gridpoint29x31="45.082818,79.222118"
       gridpoint32x33x34x35="40.696794,79.222118"
       id="path-effect973"
       is_visible="true"
       lpeversion="1"
       horizontal_mirror="false"
       vertical_mirror="false"
       perimetral="false"
       live_update="false" />
    <inkscape:path-effect
       effect="envelope"
       id="path-effect944"
       is_visible="true"
       lpeversion="1"
       yy="true"
       xx="true"
       bendpath1="M 54.742464,55.178103 H 73.874057"
       bendpath2="m 73.874057,55.178103 v 7.524065"
       bendpath3="M 54.742464,62.702168 H 73.874057"
       bendpath4="m 54.742464,55.178103 v 7.524065" />
    <rect
       x="31.75"
       y="73.327377"
       width="139.09525"
       height="55.184525"
       id="rect835" />
    <rect
       id="rect952"
       height="55.184525"
       width="139.09525"
       y="73.327377"
       x="31.75" />
    <rect
       id="rect960"
       height="55.184525"
       width="139.09525"
       y="73.327377"
       x="31.75" />
  </defs>
  <sodipodi:namedview
     id="base"
     pagecolor="#ffffff"
     bordercolor="#666666"
     borderopacity="1.0"
     inkscape:pageopacity="0.0"
     inkscape:pageshadow="2"
     inkscape:zoom="1.7941102"
     inkscape:cx="82.465726"
     inkscape:cy="63.000463"
     inkscape:document-units="mm"
     inkscape:current-layer="layer1"
     inkscape:document-rotation="0"
     showgrid="false"
     showguides="true"
     inkscape:guide-bbox="true"
     inkscape:window-width="1392"
     inkscape:window-height="855"
     inkscape:window-x="0"
     inkscape:window-y="23"
     inkscape:window-maximized="0"
     fit-margin-top="0"
     fit-margin-left="0"
     fit-margin-right="0"
     fit-margin-bottom="0" />
  <metadata
     id="metadata5">
    <rdf:RDF>
      <cc:Work
         rdf:about="">
        <dc:format>image/svg+xml</dc:format>
        <dc:type
           rdf:resource="http://purl.org/dc/dcmitype/StillImage" />
        <dc:title></dc:title>
      </cc:Work>
    </rdf:RDF>
  </metadata>
  <g
     inkscape:label="Layer 1"
     inkscape:groupmode="layer"
     id="layer1"
     transform="translate(-20.713423,-48.26253)">
    <g
       aria-label="detekt"
       transform="translate(-11.346635,-20.148231)"
       id="text833"
       style="font-style:normal;font-weight:normal;font-size:10.5833px;line-height:1.25;font-family:sans-serif;white-space:pre;shape-inside:url(#rect835);fill:#000000;fill-opacity:1;stroke:none;stroke-width:0.5;stroke-miterlimit:4;stroke-dasharray:none">
      <path
         d="m 34.163282,83.168207 q -0.656289,0 -1.131711,-0.346231 -0.470254,-0.346231 -0.723467,-0.971514 -0.248046,-0.630451 -0.248046,-1.467606 v -0.10852 q 0,-0.873329 0.253213,-1.52445 0.253214,-0.656289 0.7183,-1.018023 0.470254,-0.366901 1.11104,-0.366901 0.444416,0 0.764809,0.186034 0.32556,0.180867 0.568439,0.511595 V 76.228084 L 34.69038,76.06272 v -1.064531 h 0.785479 1.813837 v 6.83677 l 0.651121,0.165364 v 1.059363 h -2.22208 l -0.134358,-0.692462 q -0.253214,0.39274 -0.599445,0.599445 -0.346231,0.201538 -0.821652,0.201538 z m 0.563271,-1.390092 q 0.227376,0 0.423745,-0.08785 0.19637,-0.08785 0.325561,-0.263549 v -2.237582 q -0.129191,-0.211873 -0.320393,-0.320393 -0.186035,-0.113688 -0.418578,-0.113688 -0.310057,0 -0.50126,0.191203 -0.191202,0.191202 -0.279051,0.532265 -0.08268,0.341063 -0.08268,0.795815 v 0.10852 q 0,0.666624 0.186034,1.033525 0.186035,0.361734 0.666624,0.361734 z"
         style="font-style:normal;font-variant:normal;font-weight:900;font-stretch:normal;font-family:'Roboto Slab';-inkscape-font-specification:'Roboto Slab Heavy';fill:#000000;fill-opacity:1;stroke-width:0.5;stroke-miterlimit:4;stroke-dasharray:none"
         id="path1055" />
      <path
         d="m 41.062063,83.168207 q -0.821652,0 -1.4366,-0.351399 -0.60978,-0.356566 -0.950843,-0.971514 -0.335896,-0.614947 -0.335896,-1.390091 V 80.264 q 0,-0.852658 0.299722,-1.508947 0.299723,-0.656288 0.878497,-1.02319 0.578774,-0.372069 1.421097,-0.366901 0.759641,0 1.281572,0.294555 0.527098,0.289387 0.800982,0.857826 0.273884,0.563271 0.273884,1.390091 v 0.935341 H 40.21974 l -0.0052,0.03617 q 0.04134,0.263549 0.175699,0.470254 0.139526,0.201537 0.382404,0.320393 0.242879,0.118855 0.599445,0.118855 0.351399,0 0.687294,-0.07751 0.341064,-0.08268 0.7183,-0.258381 l 0.413411,1.095536 q -0.377237,0.268717 -0.919838,0.444416 -0.542601,0.1757 -1.209225,0.1757 z M 40.21974,79.7214 h 1.421098 v -0.134359 q 0,-0.299722 -0.06201,-0.50126 -0.05684,-0.201537 -0.201537,-0.304889 -0.144694,-0.103353 -0.397908,-0.103353 -0.273884,0 -0.439248,0.134358 -0.160196,0.129191 -0.237711,0.361734 -0.07235,0.227376 -0.103352,0.52193 z"
         style="font-style:normal;font-variant:normal;font-weight:900;font-stretch:normal;font-family:'Roboto Slab';-inkscape-font-specification:'Roboto Slab Heavy';fill:#000000;fill-opacity:1;stroke-width:0.5;stroke-miterlimit:4;stroke-dasharray:none"
         id="path1057" />
      <path
         d="m 46.281366,83.178542 q -0.878496,0 -1.338415,-0.465087 Q 44.4882,82.243201 44.4882,81.230347 V 78.71888 h -0.69763 v -1.250566 h 0.69763 v -1.379756 h 1.803502 v 1.379756 h 0.914669 v 1.250566 h -0.914669 v 2.506299 q 0,0.273884 0.124023,0.382404 0.124023,0.108521 0.341063,0.108521 0.09302,0 0.186034,-0.01034 0.09302,-0.01034 0.186035,-0.02584 l 0.124023,1.353918 q -0.237711,0.06718 -0.480589,0.103353 -0.237711,0.04134 -0.490925,0.04134 z"
         style="font-style:normal;font-variant:normal;font-weight:900;font-stretch:normal;font-family:'Roboto Slab';-inkscape-font-specification:'Roboto Slab Heavy';fill:#000000;fill-opacity:1;stroke-width:0.5;stroke-miterlimit:4;stroke-dasharray:none"
         id="path1059" />
      <path
         d="m 50.384462,83.168207 q -0.821653,0 -1.436601,-0.351399 -0.60978,-0.356566 -0.950843,-0.971514 -0.335896,-0.614947 -0.335896,-1.390091 V 80.264 q 0,-0.852658 0.299723,-1.508947 0.299722,-0.656288 0.878496,-1.02319 0.578774,-0.372069 1.421098,-0.366901 0.759641,0 1.281571,0.294555 0.527098,0.289387 0.800982,0.857826 0.273884,0.563271 0.273884,1.390091 v 0.935341 h -3.074738 l -0.0052,0.03617 q 0.04134,0.263549 0.175699,0.470254 0.139526,0.201537 0.382404,0.320393 0.242879,0.118855 0.599445,0.118855 0.351399,0 0.687295,-0.07751 0.341063,-0.08268 0.7183,-0.258381 l 0.41341,1.095536 q -0.377237,0.268717 -0.919838,0.444416 -0.542601,0.1757 -1.209224,0.1757 z M 49.542138,79.7214 h 1.421098 v -0.134359 q 0,-0.299722 -0.06201,-0.50126 -0.05684,-0.201537 -0.201537,-0.304889 -0.144694,-0.103353 -0.397907,-0.103353 -0.273885,0 -0.439249,0.134358 -0.160196,0.129191 -0.237711,0.361734 -0.07235,0.227376 -0.103352,0.52193 z"
         style="font-style:normal;font-variant:normal;font-weight:900;font-stretch:normal;font-family:'Roboto Slab';-inkscape-font-specification:'Roboto Slab Heavy';fill:#000000;fill-opacity:1;stroke-width:0.5;stroke-miterlimit:4;stroke-dasharray:none"
         id="path1061" />
      <path
         d="m 53.164646,83.059686 v -1.059363 l 0.661456,-0.165364 V 76.228084 L 53.040623,76.06272 v -1.064531 h 2.588981 v 6.83677 l 0.532265,0.165364 v 1.059363 z m 3.539824,0 V 82.07267 l 0.341063,-0.118856 -0.01033,-0.02067 -0.790647,-1.142046 1.229895,-1.095537 1.570959,2.118727 0.625283,0.186035 v 1.059363 z m -1.286739,-1.472773 -0.940508,-0.868161 2.428784,-2.103225 v -0.0052 l -0.558103,-0.09302 v -1.049029 h 3.219431 v 1.064531 l -0.723468,0.211873 z"
         style="font-style:normal;font-variant:normal;font-weight:900;font-stretch:normal;font-family:'Roboto Slab';-inkscape-font-specification:'Roboto Slab Heavy';fill:#000000;fill-opacity:1;stroke-width:0.5;stroke-miterlimit:4;stroke-dasharray:none"
         id="path1063" />
      <path
         d="m 62.507715,83.178542 q -0.878496,0 -1.338415,-0.465087 -0.454751,-0.470254 -0.454751,-1.483108 V 78.71888 h -0.69763 v -1.250566 h 0.69763 v -1.379756 h 1.803501 v 1.379756 h 0.91467 v 1.250566 h -0.91467 v 2.506299 q 0,0.273884 0.124023,0.382404 0.124023,0.108521 0.341064,0.108521 0.09302,0 0.186034,-0.01034 0.09302,-0.01034 0.186035,-0.02584 l 0.124023,1.353918 q -0.237711,0.06718 -0.480589,0.103353 -0.237711,0.04134 -0.490925,0.04134 z"
         style="letter-spacing:0.198437px;fill:#000000;fill-opacity:1;stroke-width:0.5;stroke-miterlimit:4;stroke-dasharray:none"
         id="path1065" />
    </g>
    <circle
       style="fill:#000000;fill-opacity:1;stroke:none;stroke-width:1.2;stroke-linecap:butt;stroke-linejoin:round;stroke-miterlimit:4;stroke-dasharray:none;stroke-opacity:1;paint-order:normal"
       id="path859"
       cx="64.276299"
       cy="58.969387"
       r="10.706857" />
    <g
       transform="matrix(1.0403115,0,0,1.0403115,-2.0619036,-2.51511)"
       id="g1943">
      <path
         d="m 59.302587,54.335327 1.739311,2.100897 -3.424886,5.92307 -1.739915,-2.09085 3.42549,-5.933117"
         style="fill:#ff00ff;fill-opacity:1;fill-rule:nonzero;stroke:none;stroke-width:0.00360104;stroke-opacity:1"
         id="path14" />
      <path
         d="m 62.437573,54.227006 c -0.179782,0.897936 -0.867945,1.312664 -1.537091,0.926331 -0.669119,-0.386315 -1.06581,-1.427385 -0.88603,-2.325322 0.179769,-0.89786 0.867932,-1.312588 1.537051,-0.926272 0.669147,0.386333 1.065813,1.427388 0.88607,2.325263"
         style="fill:#ff00ff;fill-opacity:1;fill-rule:nonzero;stroke:none;stroke-width:0.00360104;stroke-opacity:1"
         id="path16" />
      <path
         d="m 64.333926,57.240174 -2.689093,-0.455845 -3.417089,5.927572 2.680692,0.46139 3.42549,-5.933117"
         style="fill:#00ffff;fill-opacity:1;fill-rule:nonzero;stroke:none;stroke-width:0.00360104"
         id="path18" />
      <path
         d="m 62.845912,54.462761 c -0.687732,0.60467 -0.702816,1.408001 -0.03369,1.794322 0.669125,0.38632 1.769054,0.209325 2.456826,-0.395322 0.687674,-0.604621 0.702771,-1.407944 0.03365,-1.794264 -0.669156,-0.386337 -1.769085,-0.209343 -2.456784,0.395264"
         style="fill:#00ffff;fill-opacity:1;fill-rule:nonzero;stroke:none;stroke-width:0.00360104"
         id="path20" />
      <path
         d="m 64.900449,57.567256 1.739312,2.100898 -3.424887,5.92307 -1.739914,-2.09085 3.425489,-5.933118"
         style="fill:#ffff00;fill-opacity:1;fill-rule:nonzero;stroke:none;stroke-width:0.00360104"
         id="path22" />
      <path
         d="m 68.049772,57.467213 c -0.179754,0.897952 -0.867936,1.312669 -1.53706,0.926349 -0.669187,-0.386355 -1.065838,-1.427401 -0.886053,-2.325335 0.179749,-0.897872 0.867931,-1.312589 1.537025,-0.926288 0.669156,0.386338 1.065806,1.427384 0.886088,2.325274"
         style="fill:#ffff00;fill-opacity:1;fill-rule:nonzero;stroke:none;stroke-width:0.00360104"
         id="path24" />
      <path
         d="m 72.675493,57.352308 -1.17484,2.03488 c 0,0 -0.555229,-0.694793 -1.059611,-0.01924 -0.453425,0.76735 -0.605425,1.048626 -0.605425,1.048626 l 0.953831,0.202452 -1.030798,1.785393 -0.973046,-0.177163 -2.403695,4.163318 -2.675577,-0.45324 4.249227,-7.359872 c 0,0 1.483663,-2.677809 4.719934,-1.225159"
         style="fill:#808080;fill-opacity:1;fill-rule:nonzero;stroke:none;stroke-width:0.00360104"
         id="path26" />
    </g>
  </g>
</svg>
