<?xml version="1.0" encoding="UTF-8" standalone="no"?>
<svg
   xmlns:dc="http://purl.org/dc/elements/1.1/"
   xmlns:cc="http://creativecommons.org/ns#"
   xmlns:rdf="http://www.w3.org/1999/02/22-rdf-syntax-ns#"
   xmlns:svg="http://www.w3.org/2000/svg"
   xmlns="http://www.w3.org/2000/svg"
   xmlns:sodipodi="http://sodipodi.sourceforge.net/DTD/sodipodi-0.dtd"
   xmlns:inkscape="http://www.inkscape.org/namespaces/inkscape"
   width="54.269733mm"
   height="21.413713mm"
   viewBox="0 0 54.269733 21.413713"
   version="1.1"
   id="svg8"
   sodipodi:docname="logo5.svg"
   inkscape:version="1.0 (4035a4f, 2020-05-01)">
  <defs
     id="defs2">
    <inkscape:path-effect
       gridpoint32x33x34x35="40.696794,79.222118"
       gridpoint29x31="45.082818,79.222118"
       gridpoint28x30="36.310771,79.222118"
       gridpoint25x27="49.468841,79.222118"
       gridpoint24x26="31.924748,79.222118"
       gridpoint22x23="40.696794,81.103134"
       gridpoint20x21="40.696794,77.341102"
       gridpoint19="45.082818,81.103134"
       gridpoint18="36.310771,81.103134"
       gridpoint17="45.082818,77.341102"
       gridpoint16="36.310771,77.341102"
       gridpoint15="49.468841,81.103134"
       gridpoint14="31.924748,81.103134"
       gridpoint13="49.468841,77.341102"
       gridpoint12="31.924748,77.341102"
       gridpoint10x11="40.696794,83.514367"
       gridpoint8x9="40.643772,74.823826"
       gridpoint7="45.082818,83.461345"
       gridpoint6="36.310771,83.408323"
       gridpoint5="45.082818,74.717783"
       gridpoint4="36.204728,74.929869"
       gridpoint3="49.468841,82.98415"
       gridpoint2="31.924748,82.98415"
       gridpoint1="49.468841,75.460086"
       gridpoint0="31.924748,75.460086"
       effect="lattice2"
       id="path-effect979"
       is_visible="true"
       lpeversion="1"
       horizontal_mirror="false"
       vertical_mirror="false"
       perimetral="false"
       live_update="false" />
    <inkscape:path-effect
       effect="lattice2"
       gridpoint0="31.924748,75.460086"
       gridpoint1="49.468841,75.460086"
       gridpoint2="31.924748,82.98415"
       gridpoint3="49.468841,82.98415"
       gridpoint4="36.310771,75.460086"
       gridpoint5="45.082818,75.460086"
       gridpoint6="36.310771,82.98415"
       gridpoint7="45.082818,82.98415"
       gridpoint8x9="40.696794,75.460086"
       gridpoint10x11="40.696794,82.98415"
       gridpoint12="31.924748,77.341102"
       gridpoint13="49.468841,77.341102"
       gridpoint14="31.924748,81.103134"
       gridpoint15="49.468841,81.103134"
       gridpoint16="36.310771,77.341102"
       gridpoint17="45.082818,77.341102"
       gridpoint18="36.310771,81.103134"
       gridpoint19="45.082818,81.103134"
       gridpoint20x21="40.696794,77.341102"
       gridpoint22x23="40.696794,81.103134"
       gridpoint24x26="31.924748,79.222118"
       gridpoint25x27="49.468841,79.222118"
       gridpoint28x30="36.310771,79.222118"
       gridpoint29x31="45.082818,79.222118"
       gridpoint32x33x34x35="40.696794,79.222118"
       id="path-effect977"
       is_visible="true"
       lpeversion="1"
       horizontal_mirror="false"
       vertical_mirror="false"
       perimetral="false"
       live_update="false" />
    <inkscape:path-effect
       effect="lattice2"
       gridpoint0="31.924748,75.460086"
       gridpoint1="49.468841,75.460086"
       gridpoint2="31.924748,82.98415"
       gridpoint3="49.468841,82.98415"
       gridpoint4="36.310771,75.460086"
       gridpoint5="45.082818,75.460086"
       gridpoint6="36.310771,82.98415"
       gridpoint7="45.082818,82.98415"
       gridpoint8x9="40.696794,75.460086"
       gridpoint10x11="40.696794,82.98415"
       gridpoint12="31.924748,77.341102"
       gridpoint13="49.468841,77.341102"
       gridpoint14="31.924748,81.103134"
       gridpoint15="49.468841,81.103134"
       gridpoint16="36.310771,77.341102"
       gridpoint17="45.082818,77.341102"
       gridpoint18="36.310771,81.103134"
       gridpoint19="45.082818,81.103134"
       gridpoint20x21="40.696794,77.341102"
       gridpoint22x23="40.696794,81.103134"
       gridpoint24x26="31.924748,79.222118"
       gridpoint25x27="49.468841,79.222118"
       gridpoint28x30="36.310771,79.222118"
       gridpoint29x31="45.082818,79.222118"
       gridpoint32x33x34x35="40.696794,79.222118"
       id="path-effect975"
       is_visible="true"
       lpeversion="1"
       horizontal_mirror="false"
       vertical_mirror="false"
       perimetral="false"
       live_update="false" />
    <inkscape:path-effect
       effect="lattice2"
       gridpoint0="31.924748,75.460086"
       gridpoint1="49.468841,75.460086"
       gridpoint2="31.924748,82.98415"
       gridpoint3="49.468841,82.98415"
       gridpoint4="36.310771,75.460086"
       gridpoint5="45.082818,75.460086"
       gridpoint6="36.310771,82.98415"
       gridpoint7="45.082818,82.98415"
       gridpoint8x9="40.696794,75.460086"
       gridpoint10x11="40.696794,82.98415"
       gridpoint12="31.924748,77.341102"
       gridpoint13="49.468841,77.341102"
       gridpoint14="31.924748,81.103134"
       gridpoint15="49.468841,81.103134"
       gridpoint16="36.310771,77.341102"
       gridpoint17="45.082818,77.341102"
       gridpoint18="36.310771,81.103134"
       gridpoint19="45.082818,81.103134"
       gridpoint20x21="40.696794,77.341102"
       gridpoint22x23="40.696794,81.103134"
       gridpoint24x26="31.924748,79.222118"
       gridpoint25x27="49.468841,79.222118"
       gridpoint28x30="36.310771,79.222118"
       gridpoint29x31="45.082818,79.222118"
       gridpoint32x33x34x35="40.696794,79.222118"
       id="path-effect973"
       is_visible="true"
       lpeversion="1"
       horizontal_mirror="false"
       vertical_mirror="false"
       perimetral="false"
       live_update="false" />
    <inkscape:path-effect
       effect="envelope"
       id="path-effect944"
       is_visible="true"
       lpeversion="1"
       yy="true"
       xx="true"
       bendpath1="M 54.742464,55.178103 H 73.874057"
       bendpath2="m 73.874057,55.178103 v 7.524065"
       bendpath3="M 54.742464,62.702168 H 73.874057"
       bendpath4="m 54.742464,55.178103 v 7.524065" />
    <rect
       x="31.75"
       y="73.327377"
       width="139.09525"
       height="55.184525"
       id="rect835" />
    <rect
       id="rect952"
       height="55.184525"
       width="139.09525"
       y="73.327377"
       x="31.75" />
    <rect
       id="rect960"
       height="55.184525"
       width="139.09525"
       y="73.327377"
       x="31.75" />
  </defs>
  <sodipodi:namedview
     id="base"
     pagecolor="#ffffff"
     bordercolor="#666666"
     borderopacity="1.0"
     inkscape:pageopacity="0.0"
     inkscape:pageshadow="2"
     inkscape:zoom="2.8284271"
     inkscape:cx="106.02008"
     inkscape:cy="32.492574"
     inkscape:document-units="mm"
     inkscape:current-layer="layer1"
     inkscape:document-rotation="0"
     showgrid="false"
     showguides="true"
     inkscape:guide-bbox="true"
     inkscape:window-width="1392"
     inkscape:window-height="855"
     inkscape:window-x="0"
     inkscape:window-y="23"
     inkscape:window-maximized="0"
     fit-margin-top="0"
     fit-margin-left="0"
     fit-margin-right="0"
     fit-margin-bottom="0" />
  <metadata
     id="metadata5">
    <rdf:RDF>
      <cc:Work
         rdf:about="">
        <dc:format>image/svg+xml</dc:format>
        <dc:type
           rdf:resource="http://purl.org/dc/dcmitype/StillImage" />
        <dc:title></dc:title>
      </cc:Work>
    </rdf:RDF>
  </metadata>
  <g
     inkscape:label="Layer 1"
     inkscape:groupmode="layer"
     id="layer1"
     transform="translate(-20.713423,-48.26253)">
    <circle
       style="fill:#4d4d4d;fill-opacity:1;stroke:none;stroke-width:1.2;stroke-linecap:butt;stroke-linejoin:round;stroke-miterlimit:4;stroke-dasharray:none;stroke-opacity:1;paint-order:normal"
       id="path859"
       cx="64.276299"
       cy="58.969387"
       r="10.706857" />
    <g
       aria-label="iiif"
       transform="rotate(30,31.830118,-30.856828)"
       id="text2523"
       style="font-style:normal;font-weight:normal;font-size:12.7px;line-height:1.25;font-family:sans-serif;letter-spacing:0px;white-space:pre;fill:#000000;fill-opacity:1;stroke:none;stroke-width:0.132292;stroke-miterlimit:4;stroke-dasharray:none">
      <g
         id="g2574">
        <path
           id="path2561"
           style="font-style:normal;font-variant:normal;font-weight:900;font-stretch:normal;font-size:12.7px;font-family:'Roboto Slab';-inkscape-font-specification:'Roboto Slab Heavy';text-align:center;text-anchor:middle;fill:#ff00ff;fill-opacity:1;stroke-width:0.126286"
           d="m 96.519012,35.295265 v -1.213521 l 0.751792,-0.189428 v -3.593211 l -0.893862,-0.189426 v -1.219442 h 2.97165 v 5.002079 l 0.745868,0.189428 v 1.213521 z m 0.692595,-7.618552 v -1.616056 h 2.136985 v 1.616056 z" />
        <path
           id="path2563"
           style="font-style:normal;font-variant:normal;font-weight:900;font-stretch:normal;font-size:12.7px;font-family:'Roboto Slab';-inkscape-font-specification:'Roboto Slab Heavy';text-align:center;text-anchor:middle;fill:#00ffff;fill-opacity:1;stroke-width:0.126286"
           d="m 100.47332,35.295265 v -1.213521 l 0.75178,-0.189428 v -3.593211 l -0.89385,-0.189426 v -1.219442 h 2.97166 v 5.002079 l 0.74585,0.189428 v 1.213521 z m 0.69259,-7.618552 v -1.616056 h 2.137 v 1.616056 z" />
        <path
           id="path2565"
           style="font-style:normal;font-variant:normal;font-weight:900;font-stretch:normal;font-size:12.7px;font-family:'Roboto Slab';-inkscape-font-specification:'Roboto Slab Heavy';text-align:center;text-anchor:middle;fill:#ffff00;fill-opacity:1;stroke-width:0.126286"
           d="m 104.42762,35.295265 v -1.213521 l 0.7518,-0.189428 v -3.593211 l -0.89386,-0.189426 v -1.219442 h 2.97165 v 5.002079 l 0.74587,0.189428 v 1.213521 z m 0.6926,-7.618552 v -1.616056 h 2.13699 v 1.616056 z" />
        <path
           id="path2567"
           style="font-style:normal;font-variant:normal;font-weight:900;font-stretch:normal;font-size:12.7px;font-family:'Roboto Slab';-inkscape-font-specification:'Roboto Slab Heavy';text-align:center;text-anchor:middle;fill:#55d400;fill-opacity:1;stroke-width:0.126286"
           d="m 108.6128,35.295265 v -1.213521 l 0.7518,-0.189428 v -3.569532 h -0.92348 v -1.432547 h 0.92348 v -0.64524 q 0,-1.112888 0.66891,-1.71077 0.67484,-0.597881 1.88244,-0.597881 0.31965,0 0.67483,0.05326 0.35518,0.04735 0.55644,0.106555 l -0.15391,1.533182 q -0.16573,-0.04735 -0.34926,-0.07104 -0.1835,-0.02369 -0.39068,-0.02369 -0.40845,0 -0.60972,0.183508 -0.20128,0.183507 -0.20128,0.526848 v 0.645238 h 1.48583 v 1.432547 h -1.48583 v 3.569532 l 1.14841,0.189429 v 1.21352 z" />
      </g>
    </g>
    <path
       id="path1055"
       style="font-style:normal;font-variant:normal;font-weight:900;font-stretch:normal;font-size:10.5833px;line-height:1.25;font-family:'Roboto Slab';-inkscape-font-specification:'Roboto Slab Heavy';white-space:pre;fill:#4d4d4d;fill-opacity:1;stroke:none;stroke-width:0.5;stroke-miterlimit:4;stroke-dasharray:none"
       d="m 22.816647,63.049229 q -0.656289,0 -1.131711,-0.346231 -0.470254,-0.346231 -0.723467,-0.971514 -0.248046,-0.630451 -0.248046,-1.467606 v -0.10852 q 0,-0.873329 0.253213,-1.52445 0.253214,-0.656289 0.7183,-1.018023 0.470254,-0.366901 1.11104,-0.366901 0.444416,0 0.764809,0.186034 0.32556,0.180867 0.568439,0.511595 v -1.834507 l -0.785479,-0.165364 v -1.064531 h 0.785479 1.813837 v 6.83677 l 0.651121,0.165364 v 1.059363 h -2.22208 l -0.134358,-0.692462 q -0.253214,0.39274 -0.599445,0.599445 -0.346231,0.201538 -0.821652,0.201538 z m 0.563271,-1.390092 q 0.227376,0 0.423745,-0.08785 0.19637,-0.08785 0.325561,-0.263549 v -2.237582 q -0.129191,-0.211873 -0.320393,-0.320393 -0.186035,-0.113688 -0.418578,-0.113688 -0.310057,0 -0.50126,0.191203 -0.191202,0.191202 -0.279051,0.532265 -0.08268,0.341063 -0.08268,0.795815 v 0.10852 q 0,0.666624 0.186034,1.033525 0.186035,0.361734 0.666624,0.361734 z" />
    <path
       id="path1057"
       style="font-style:normal;font-variant:normal;font-weight:900;font-stretch:normal;font-size:10.5833px;line-height:1.25;font-family:'Roboto Slab';-inkscape-font-specification:'Roboto Slab Heavy';white-space:pre;fill:#4d4d4d;fill-opacity:1;stroke:none;stroke-width:0.5;stroke-miterlimit:4;stroke-dasharray:none"
       d="m 29.715428,63.049229 q -0.821652,0 -1.4366,-0.351399 -0.60978,-0.356566 -0.950843,-0.971514 -0.335896,-0.614947 -0.335896,-1.390091 v -0.191203 q 0,-0.852658 0.299722,-1.508947 0.299723,-0.656288 0.878497,-1.02319 0.578774,-0.372069 1.421097,-0.366901 0.759641,0 1.281572,0.294555 0.527098,0.289387 0.800982,0.857826 0.273884,0.563271 0.273884,1.390091 v 0.935341 h -3.074738 l -0.0052,0.03617 q 0.04134,0.263549 0.175699,0.470254 0.139526,0.201537 0.382404,0.320393 0.242879,0.118855 0.599445,0.118855 0.351399,0 0.687294,-0.07751 0.341064,-0.08268 0.7183,-0.258381 l 0.413411,1.095536 q -0.377237,0.268717 -0.919838,0.444416 -0.542601,0.1757 -1.209225,0.1757 z m -0.842323,-3.446807 h 1.421098 v -0.134359 q 0,-0.299722 -0.06201,-0.50126 -0.05684,-0.201537 -0.201537,-0.304889 -0.144694,-0.103353 -0.397908,-0.103353 -0.273884,0 -0.439248,0.134358 -0.160196,0.129191 -0.237711,0.361734 -0.07235,0.227376 -0.103352,0.52193 z" />
    <path
       id="path1059"
       style="font-style:normal;font-variant:normal;font-weight:900;font-stretch:normal;font-size:10.5833px;line-height:1.25;font-family:'Roboto Slab';-inkscape-font-specification:'Roboto Slab Heavy';white-space:pre;fill:#4d4d4d;fill-opacity:1;stroke:none;stroke-width:0.5;stroke-miterlimit:4;stroke-dasharray:none"
       d="m 34.934731,63.059564 q -0.878496,0 -1.338415,-0.465087 -0.454751,-0.470254 -0.454751,-1.483108 v -2.511467 h -0.69763 v -1.250566 h 0.69763 V 55.96958 h 1.803502 v 1.379756 h 0.914669 v 1.250566 h -0.914669 v 2.506299 q 0,0.273884 0.124023,0.382404 0.124023,0.108521 0.341063,0.108521 0.09302,0 0.186034,-0.01034 0.09302,-0.01034 0.186035,-0.02584 l 0.124023,1.353918 q -0.237711,0.06718 -0.480589,0.103353 -0.237711,0.04134 -0.490925,0.04134 z" />
    <path
       id="path1061"
       style="font-style:normal;font-variant:normal;font-weight:900;font-stretch:normal;font-size:10.5833px;line-height:1.25;font-family:'Roboto Slab';-inkscape-font-specification:'Roboto Slab Heavy';white-space:pre;fill:#4d4d4d;fill-opacity:1;stroke:none;stroke-width:0.5;stroke-miterlimit:4;stroke-dasharray:none"
       d="m 39.037827,63.049229 q -0.821653,0 -1.436601,-0.351399 -0.60978,-0.356566 -0.950843,-0.971514 -0.335896,-0.614947 -0.335896,-1.390091 v -0.191203 q 0,-0.852658 0.299723,-1.508947 0.299722,-0.656288 0.878496,-1.02319 0.578774,-0.372069 1.421098,-0.366901 0.759641,0 1.281571,0.294555 0.527098,0.289387 0.800982,0.857826 0.273884,0.563271 0.273884,1.390091 v 0.935341 h -3.074738 l -0.0052,0.03617 q 0.04134,0.263549 0.175699,0.470254 0.139526,0.201537 0.382404,0.320393 0.242879,0.118855 0.599445,0.118855 0.351399,0 0.687295,-0.07751 0.341063,-0.08268 0.7183,-0.258381 l 0.41341,1.095536 q -0.377237,0.268717 -0.919838,0.444416 -0.542601,0.1757 -1.209224,0.1757 z m -0.842324,-3.446807 h 1.421098 v -0.134359 q 0,-0.299722 -0.06201,-0.50126 -0.05684,-0.201537 -0.201537,-0.304889 -0.144694,-0.103353 -0.397907,-0.103353 -0.273885,0 -0.439249,0.134358 -0.160196,0.129191 -0.237711,0.361734 -0.07235,0.227376 -0.103352,0.52193 z" />
    <path
       id="path1063"
       style="font-style:normal;font-variant:normal;font-weight:900;font-stretch:normal;font-size:10.5833px;line-height:1.25;font-family:'Roboto Slab';-inkscape-font-specification:'Roboto Slab Heavy';white-space:pre;fill:#4d4d4d;fill-opacity:1;stroke:none;stroke-width:0.5;stroke-miterlimit:4;stroke-dasharray:none"
       d="m 41.818011,62.940708 v -1.059363 l 0.661456,-0.165364 v -5.606875 l -0.785479,-0.165364 v -1.064531 h 2.588981 v 6.83677 l 0.532265,0.165364 v 1.059363 z m 3.539824,0 v -0.987016 l 0.341063,-0.118856 -0.01033,-0.02067 -0.790647,-1.142046 1.229895,-1.095537 1.570959,2.118727 0.625283,0.186035 v 1.059363 z m -1.286739,-1.472773 -0.940508,-0.868161 2.428784,-2.103225 v -0.0052 l -0.558103,-0.09302 V 57.3493 H 48.2207 v 1.064531 l -0.723468,0.211873 z" />
    <path
       id="path1065"
       style="font-style:normal;font-weight:normal;font-size:10.5833px;line-height:1.25;font-family:sans-serif;letter-spacing:0.198437px;white-space:pre;fill:#4d4d4d;fill-opacity:1;stroke:none;stroke-width:0.5;stroke-miterlimit:4;stroke-dasharray:none"
       d="m 51.16108,63.059564 q -0.878496,0 -1.338415,-0.465087 -0.454751,-0.470254 -0.454751,-1.483108 v -2.511467 h -0.69763 v -1.250566 h 0.69763 V 55.96958 h 1.803501 v 1.379756 h 0.91467 v 1.250566 h -0.91467 v 2.506299 q 0,0.273884 0.124023,0.382404 0.124023,0.108521 0.341064,0.108521 0.09302,0 0.186034,-0.01034 0.09302,-0.01034 0.186035,-0.02584 l 0.124023,1.353918 q -0.237711,0.06718 -0.480589,0.103353 -0.237711,0.04134 -0.490925,0.04134 z" />
  </g>
</svg>
